<mxfile host="app.diagrams.net" agent="Mozilla/5.0 (Windows NT 10.0; Win64; x64) AppleWebKit/537.36 (KHTML, like Gecko) Chrome/138.0.0.0 Safari/537.36" version="27.0.3" pages="4">
  <diagram name="pak以及package及其manager等的结构" id="0_DPDlmNHJ0jKNYms1wm">
    <mxGraphModel dx="1188" dy="604" grid="1" gridSize="10" guides="1" tooltips="1" connect="1" arrows="1" fold="1" page="1" pageScale="1" pageWidth="827" pageHeight="1169" math="0" shadow="0">
      <root>
        <mxCell id="0" />
        <mxCell id="1" parent="0" />
        <mxCell id="tK5wpsxRvF1ldBvmmodE-6" value="&lt;div style=&quot;background-color: rgb(38, 38, 38); color: rgb(208, 208, 208);&quot;&gt;&lt;pre style=&quot;text-align: center; font-family: &amp;quot;JetBrains Mono&amp;quot;, monospace; font-size: 10.5pt;&quot;&gt;&lt;span style=&quot;color: rgb(193, 145, 255);&quot;&gt;UPakMountManager&lt;/span&gt;&lt;/pre&gt;&lt;/div&gt;&lt;hr size=&quot;1&quot; style=&quot;border-style:solid;&quot;&gt;&lt;p style=&quot;margin:0px;margin-left:4px;&quot;&gt;+&amp;nbsp;&lt;span style=&quot;font-family: &amp;quot;JetBrains Mono&amp;quot;, monospace; font-size: 10.5pt; background-color: rgb(38, 38, 38); color: rgb(208, 208, 208);&quot;&gt;MainPakPlatformFile&lt;/span&gt;&lt;span style=&quot;background-color: transparent; color: light-dark(rgb(0, 0, 0), rgb(255, 255, 255));&quot;&gt;:&amp;nbsp;&lt;/span&gt;&lt;span style=&quot;color: rgb(193, 145, 255); font-family: &amp;quot;JetBrains Mono&amp;quot;, monospace; font-size: 10.5pt; background-color: rgb(38, 38, 38);&quot;&gt;FPakPlatformFile*&lt;/span&gt;&lt;/p&gt;&lt;p style=&quot;margin:0px;margin-left:4px;&quot;&gt;+ field2: Type&lt;/p&gt;&lt;hr size=&quot;1&quot; style=&quot;border-style:solid;&quot;&gt;&lt;p style=&quot;margin:0px;margin-left:4px;&quot;&gt;+&amp;nbsp;&lt;span style=&quot;color: rgb(57, 204, 155); font-family: &amp;quot;JetBrains Mono&amp;quot;, monospace; font-size: 10.5pt; background-color: rgb(38, 38, 38);&quot;&gt;Mount&lt;/span&gt;&lt;span style=&quot;background-color: transparent; color: light-dark(rgb(0, 0, 0), rgb(255, 255, 255));&quot;&gt;(&lt;/span&gt;&lt;span style=&quot;font-family: &amp;quot;JetBrains Mono&amp;quot;, monospace; font-size: 10.5pt; background-color: rgb(38, 38, 38); color: rgb(108, 149, 235);&quot;&gt;const &lt;/span&gt;&lt;span style=&quot;font-family: &amp;quot;JetBrains Mono&amp;quot;, monospace; font-size: 10.5pt; background-color: rgb(38, 38, 38); color: rgb(208, 208, 208);&quot;&gt;FString&lt;/span&gt;&lt;span style=&quot;font-family: &amp;quot;JetBrains Mono&amp;quot;, monospace; font-size: 10.5pt; background-color: rgb(38, 38, 38); color: rgb(189, 189, 189);&quot;&gt;&amp;amp; &lt;/span&gt;&lt;span style=&quot;font-family: &amp;quot;JetBrains Mono&amp;quot;, monospace; font-size: 10.5pt; background-color: rgb(38, 38, 38); color: rgb(208, 208, 208);&quot;&gt;PakFilename&lt;/span&gt;&lt;span style=&quot;font-family: &amp;quot;JetBrains Mono&amp;quot;, monospace; font-size: 10.5pt; background-color: rgb(38, 38, 38); color: rgb(189, 189, 189);&quot;&gt;, &lt;/span&gt;&lt;span style=&quot;font-family: &amp;quot;JetBrains Mono&amp;quot;, monospace; font-size: 10.5pt; background-color: rgb(38, 38, 38); color: rgb(208, 208, 208);&quot;&gt;int32 PakOrder &lt;/span&gt;&lt;span style=&quot;font-family: &amp;quot;JetBrains Mono&amp;quot;, monospace; font-size: 10.5pt; background-color: rgb(38, 38, 38); color: rgb(133, 196, 108); font-style: italic;&quot;&gt;/*= 0*/&lt;/span&gt;&lt;span style=&quot;font-family: &amp;quot;JetBrains Mono&amp;quot;, monospace; font-size: 10.5pt; background-color: rgb(38, 38, 38); color: rgb(189, 189, 189);&quot;&gt;, &lt;/span&gt;&lt;span style=&quot;font-family: &amp;quot;JetBrains Mono&amp;quot;, monospace; font-size: 10.5pt; background-color: rgb(38, 38, 38); color: rgb(108, 149, 235);&quot;&gt;bool &lt;/span&gt;&lt;span style=&quot;font-family: &amp;quot;JetBrains Mono&amp;quot;, monospace; font-size: 10.5pt; background-color: rgb(38, 38, 38); color: rgb(208, 208, 208);&quot;&gt;bCheckCustomVersion &lt;/span&gt;&lt;span style=&quot;font-family: &amp;quot;JetBrains Mono&amp;quot;, monospace; font-size: 10.5pt; background-color: rgb(38, 38, 38); color: rgb(133, 196, 108); font-style: italic;&quot;&gt;/*= true*/&lt;/span&gt;&lt;span style=&quot;background-color: transparent; color: light-dark(rgb(0, 0, 0), rgb(255, 255, 255));&quot;&gt;): Type&lt;/span&gt;&lt;/p&gt;&lt;p style=&quot;margin:0px;margin-left:4px;&quot;&gt;+ method2(Type, Type): Type&lt;/p&gt;" style="verticalAlign=top;align=left;overflow=fill;html=1;whiteSpace=wrap;" vertex="1" parent="1">
          <mxGeometry x="44" y="70" width="416" height="210" as="geometry" />
        </mxCell>
        <mxCell id="tK5wpsxRvF1ldBvmmodE-7" value="&lt;div style=&quot;background-color: rgb(38, 38, 38); color: rgb(208, 208, 208);&quot;&gt;&lt;pre style=&quot;text-align: center; font-family: &amp;quot;JetBrains Mono&amp;quot;, monospace; font-size: 10.5pt;&quot;&gt;FPakPlatformFile&lt;/pre&gt;&lt;/div&gt;&lt;hr size=&quot;1&quot; style=&quot;border-style:solid;&quot;&gt;&lt;p style=&quot;margin:0px;margin-left:4px;&quot;&gt;+&amp;nbsp;&lt;span style=&quot;font-family: &amp;quot;JetBrains Mono&amp;quot;, monospace; font-size: 10.5pt; background-color: rgb(38, 38, 38); color: rgb(208, 208, 208);&quot;&gt;PakListCritical&lt;/span&gt;&lt;span style=&quot;background-color: transparent; color: light-dark(rgb(0, 0, 0), rgb(255, 255, 255));&quot;&gt;:&amp;nbsp;&lt;/span&gt;&lt;span style=&quot;color: rgb(193, 145, 255); font-family: &amp;quot;JetBrains Mono&amp;quot;, monospace; font-size: 10.5pt; background-color: rgb(38, 38, 38);&quot;&gt;FCriticalSection 当前挂载列表的pak类型对象&lt;/span&gt;&lt;/p&gt;&lt;p style=&quot;margin:0px;margin-left:4px;&quot;&gt;+&amp;nbsp;&lt;span style=&quot;font-family: &amp;quot;JetBrains Mono&amp;quot;, monospace; font-size: 10.5pt; background-color: rgb(38, 38, 38); color: rgb(208, 208, 208);&quot;&gt;PakFiles&lt;/span&gt;&lt;span style=&quot;background-color: transparent; color: light-dark(rgb(0, 0, 0), rgb(255, 255, 255));&quot;&gt;:&amp;nbsp;&lt;/span&gt;&lt;span style=&quot;font-family: &amp;quot;JetBrains Mono&amp;quot;, monospace; font-size: 10.5pt; background-color: rgb(38, 38, 38); color: rgb(193, 145, 255);&quot;&gt;TArray&lt;/span&gt;&lt;span style=&quot;font-family: &amp;quot;JetBrains Mono&amp;quot;, monospace; font-size: 10.5pt; background-color: rgb(38, 38, 38); color: rgb(189, 189, 189);&quot;&gt;&amp;lt;&lt;/span&gt;&lt;span style=&quot;font-family: &amp;quot;JetBrains Mono&amp;quot;, monospace; font-size: 10.5pt; background-color: rgb(38, 38, 38); color: rgb(225, 191, 255);&quot;&gt;FPakListEntry&lt;/span&gt;&lt;span style=&quot;font-family: &amp;quot;JetBrains Mono&amp;quot;, monospace; font-size: 10.5pt; background-color: rgb(38, 38, 38); color: rgb(189, 189, 189);&quot;&gt;&amp;gt;&amp;nbsp; 所有目前可使用的pak&lt;/span&gt;&lt;/p&gt;&lt;hr size=&quot;1&quot; style=&quot;border-style:solid;&quot;&gt;&lt;p style=&quot;margin:0px;margin-left:4px;&quot;&gt;+&amp;nbsp;&lt;span style=&quot;font-family: &amp;quot;JetBrains Mono&amp;quot;, monospace; font-size: 10.5pt; background-color: rgb(38, 38, 38); color: rgb(208, 208, 208);&quot;&gt;Mount&lt;/span&gt;&lt;span style=&quot;font-family: &amp;quot;JetBrains Mono&amp;quot;, monospace; font-size: 10.5pt; background-color: rgb(38, 38, 38); color: rgb(189, 189, 189);&quot;&gt;(&lt;/span&gt;&lt;span style=&quot;font-family: &amp;quot;JetBrains Mono&amp;quot;, monospace; font-size: 10.5pt; background-color: rgb(38, 38, 38); color: rgb(108, 149, 235);&quot;&gt;const &lt;/span&gt;&lt;span style=&quot;font-family: &amp;quot;JetBrains Mono&amp;quot;, monospace; font-size: 10.5pt; background-color: rgb(38, 38, 38); color: rgb(208, 208, 208);&quot;&gt;TCHAR&lt;/span&gt;&lt;span style=&quot;font-family: &amp;quot;JetBrains Mono&amp;quot;, monospace; font-size: 10.5pt; background-color: rgb(38, 38, 38); color: rgb(189, 189, 189);&quot;&gt;* &lt;/span&gt;&lt;span style=&quot;font-family: &amp;quot;JetBrains Mono&amp;quot;, monospace; font-size: 10.5pt; background-color: rgb(38, 38, 38); color: rgb(208, 208, 208);&quot;&gt;InPakFilename&lt;/span&gt;&lt;span style=&quot;font-family: &amp;quot;JetBrains Mono&amp;quot;, monospace; font-size: 10.5pt; background-color: rgb(38, 38, 38); color: rgb(189, 189, 189);&quot;&gt;, &lt;/span&gt;&lt;span style=&quot;font-family: &amp;quot;JetBrains Mono&amp;quot;, monospace; font-size: 10.5pt; background-color: rgb(38, 38, 38); color: rgb(208, 208, 208);&quot;&gt;uint32 PakOrder&lt;/span&gt;&lt;span style=&quot;font-family: &amp;quot;JetBrains Mono&amp;quot;, monospace; font-size: 10.5pt; background-color: rgb(38, 38, 38); color: rgb(189, 189, 189);&quot;&gt;,...&lt;/span&gt;&lt;span style=&quot;font-family: &amp;quot;JetBrains Mono&amp;quot;, monospace; font-size: 10.5pt; background-color: rgb(38, 38, 38); color: rgb(189, 189, 189);&quot;&gt;)&lt;/span&gt;&lt;span style=&quot;background-color: transparent; color: light-dark(rgb(0, 0, 0), rgb(255, 255, 255));&quot;&gt;: Type&lt;/span&gt;&lt;/p&gt;&lt;p style=&quot;margin:0px;margin-left:4px;&quot;&gt;+ method2(Type, Type): Type&lt;/p&gt;" style="verticalAlign=top;align=left;overflow=fill;html=1;whiteSpace=wrap;" vertex="1" parent="1">
          <mxGeometry x="540" y="70" width="436" height="210" as="geometry" />
        </mxCell>
        <mxCell id="hQ2-ZtLPo1GwIaWoY0Od-1" value="&lt;div style=&quot;background-color: rgb(38, 38, 38); color: rgb(208, 208, 208);&quot;&gt;&lt;pre style=&quot;text-align: center; font-family: &amp;quot;JetBrains Mono&amp;quot;, monospace; font-size: 10.5pt;&quot;&gt;FPakFile&lt;/pre&gt;&lt;/div&gt;&lt;hr size=&quot;1&quot; style=&quot;border-style:solid;&quot;&gt;&lt;p style=&quot;margin:0px;margin-left:4px;&quot;&gt;+&amp;nbsp;&lt;span style=&quot;color: rgb(102, 195, 204); font-family: &amp;quot;JetBrains Mono&amp;quot;, monospace; font-size: 10.5pt; background-color: rgb(38, 38, 38);&quot;&gt;Info&lt;/span&gt;&lt;span style=&quot;background-color: transparent; color: light-dark(rgb(0, 0, 0), rgb(255, 255, 255));&quot;&gt;:&amp;nbsp;&lt;/span&gt;&lt;span style=&quot;color: rgb(225, 191, 255); font-family: &amp;quot;JetBrains Mono&amp;quot;, monospace; font-size: 10.5pt; background-color: rgb(38, 38, 38);&quot;&gt;FPakInfo&lt;/span&gt;&lt;/p&gt;&lt;p style=&quot;margin:0px;margin-left:4px;&quot;&gt;+&amp;nbsp;&lt;span style=&quot;color: rgb(102, 195, 204); font-family: &amp;quot;JetBrains Mono&amp;quot;, monospace; font-size: 10.5pt; background-color: rgb(38, 38, 38);&quot;&gt;MountPoint&lt;/span&gt;&lt;span style=&quot;background-color: transparent; color: light-dark(rgb(0, 0, 0), rgb(255, 255, 255));&quot;&gt;:&amp;nbsp;&lt;/span&gt;&lt;span style=&quot;color: rgb(193, 145, 255); font-family: &amp;quot;JetBrains Mono&amp;quot;, monospace; font-size: 10.5pt; background-color: rgb(38, 38, 38);&quot;&gt;FString&amp;nbsp; 文件挂载点，一般为空&lt;/span&gt;&lt;/p&gt;&lt;hr size=&quot;1&quot; style=&quot;border-style:solid;&quot;&gt;&lt;p style=&quot;margin:0px;margin-left:4px;&quot;&gt;+ method1(Type): Type&lt;br&gt;+ method2(Type, Type): Type&lt;/p&gt;" style="verticalAlign=top;align=left;overflow=fill;html=1;whiteSpace=wrap;" vertex="1" parent="1">
          <mxGeometry x="1100" y="60" width="426" height="190" as="geometry" />
        </mxCell>
        <mxCell id="FZzGC6UmZN0Z1_uC-y65-1" value="&lt;div style=&quot;background-color: rgb(38, 38, 38); color: rgb(208, 208, 208);&quot;&gt;&lt;pre style=&quot;text-align: center; font-family: &amp;quot;JetBrains Mono&amp;quot;, monospace; font-size: 10.5pt;&quot;&gt;FPakListEntry&lt;/pre&gt;&lt;/div&gt;&lt;hr size=&quot;1&quot; style=&quot;border-style:solid;&quot;&gt;&lt;p style=&quot;margin:0px;margin-left:4px;&quot;&gt;+&amp;nbsp;&lt;span style=&quot;color: rgb(225, 191, 255); font-family: &amp;quot;JetBrains Mono&amp;quot;, monospace; font-size: 10.5pt; background-color: rgb(38, 38, 38);&quot;&gt;ReadOrder&lt;/span&gt;&lt;span style=&quot;background-color: transparent; color: light-dark(rgb(0, 0, 0), rgb(255, 255, 255));&quot;&gt;:&amp;nbsp;&lt;/span&gt;&lt;span style=&quot;color: rgb(193, 145, 255); font-family: &amp;quot;JetBrains Mono&amp;quot;, monospace; font-size: 10.5pt; background-color: rgb(38, 38, 38);&quot;&gt;uint32&lt;/span&gt;&lt;/p&gt;&lt;p style=&quot;margin:0px;margin-left:4px;&quot;&gt;+&amp;nbsp;&lt;span style=&quot;color: rgb(225, 191, 255); font-family: &amp;quot;JetBrains Mono&amp;quot;, monospace; font-size: 10.5pt; background-color: rgb(38, 38, 38);&quot;&gt;PakFile&lt;/span&gt;&lt;span style=&quot;background-color: transparent; color: light-dark(rgb(0, 0, 0), rgb(255, 255, 255));&quot;&gt;:&amp;nbsp;&lt;/span&gt;&lt;span style=&quot;color: rgb(193, 145, 255); font-family: &amp;quot;JetBrains Mono&amp;quot;, monospace; font-size: 10.5pt; background-color: rgb(38, 38, 38);&quot;&gt;FPakFileThreadSafePtr&lt;/span&gt;&lt;/p&gt;&lt;hr size=&quot;1&quot; style=&quot;border-style:solid;&quot;&gt;&lt;p style=&quot;margin:0px;margin-left:4px;&quot;&gt;+&amp;nbsp;&lt;span style=&quot;font-family: &amp;quot;JetBrains Mono&amp;quot;, monospace; font-size: 10.5pt; background-color: rgb(38, 38, 38); color: rgb(108, 149, 235);&quot;&gt;operator &lt;/span&gt;&lt;span style=&quot;font-family: &amp;quot;JetBrains Mono&amp;quot;, monospace; font-size: 10.5pt; background-color: rgb(38, 38, 38); color: rgb(189, 189, 189);&quot;&gt;&amp;lt; (&lt;/span&gt;&lt;span style=&quot;font-family: &amp;quot;JetBrains Mono&amp;quot;, monospace; font-size: 10.5pt; background-color: rgb(38, 38, 38); color: rgb(108, 149, 235);&quot;&gt;const &lt;/span&gt;&lt;span style=&quot;font-family: &amp;quot;JetBrains Mono&amp;quot;, monospace; font-size: 10.5pt; background-color: rgb(38, 38, 38); color: rgb(225, 191, 255);&quot;&gt;FPakListEntry&lt;/span&gt;&lt;span style=&quot;font-family: &amp;quot;JetBrains Mono&amp;quot;, monospace; font-size: 10.5pt; background-color: rgb(38, 38, 38); color: rgb(189, 189, 189);&quot;&gt;&amp;amp; RHS)&lt;/span&gt;&lt;span style=&quot;background-color: transparent; color: light-dark(rgb(0, 0, 0), rgb(255, 255, 255));&quot;&gt;: bool&lt;/span&gt;&lt;/p&gt;&lt;p style=&quot;margin:0px;margin-left:4px;&quot;&gt;&lt;span style=&quot;background-color: transparent; color: light-dark(rgb(0, 0, 0), rgb(255, 255, 255));&quot;&gt;按照readorder大小进行排序，用于&lt;/span&gt;&lt;span style=&quot;color: rgb(208, 208, 208); font-family: &amp;quot;JetBrains Mono&amp;quot;, monospace; font-size: 10.5pt; text-align: center; background-color: transparent;&quot;&gt;FPakPlatformFile中的&lt;/span&gt;&lt;span style=&quot;background-color: rgb(38, 38, 38); color: rgb(208, 208, 208); font-family: &amp;quot;JetBrains Mono&amp;quot;, monospace; font-size: 14px;&quot;&gt;PakFiles进行排序&lt;/span&gt;&lt;/p&gt;" style="verticalAlign=top;align=left;overflow=fill;html=1;whiteSpace=wrap;" vertex="1" parent="1">
          <mxGeometry x="1100" y="330" width="330" height="160" as="geometry" />
        </mxCell>
        <mxCell id="kJ8E08m2kDe41h8lUd5h-1" value="每个pak都有一个" style="text;html=1;align=center;verticalAlign=middle;resizable=0;points=[];autosize=1;strokeColor=none;fillColor=none;" vertex="1" parent="1">
          <mxGeometry x="1105" y="8" width="110" height="30" as="geometry" />
        </mxCell>
        <mxCell id="kJ8E08m2kDe41h8lUd5h-2" value="&lt;div style=&quot;background-color: rgb(38, 38, 38); color: rgb(208, 208, 208);&quot;&gt;&lt;pre style=&quot;text-align: center; font-family: &amp;quot;JetBrains Mono&amp;quot;, monospace; font-size: 10.5pt;&quot;&gt;&lt;span style=&quot;color: rgb(193, 145, 255);&quot;&gt;FIoStoreEnvironment&lt;/span&gt;&lt;/pre&gt;&lt;pre style=&quot;text-align: center; font-family: &amp;quot;JetBrains Mono&amp;quot;, monospace; font-size: 10.5pt;&quot;&gt;&lt;span style=&quot;color: rgb(193, 145, 255);&quot;&gt;用于管理IO存储句柄的文件创建&lt;/span&gt;&lt;/pre&gt;&lt;/div&gt;&lt;hr size=&quot;1&quot; style=&quot;border-style:solid;&quot;&gt;&lt;p style=&quot;margin:0px;margin-left:4px;&quot;&gt;+&amp;nbsp;&lt;span style=&quot;color: rgb(102, 195, 204); font-family: &amp;quot;JetBrains Mono&amp;quot;, monospace; font-size: 10.5pt; background-color: rgb(38, 38, 38);&quot;&gt;Path&lt;/span&gt;&lt;span style=&quot;background-color: transparent; color: light-dark(rgb(0, 0, 0), rgb(255, 255, 255));&quot;&gt;:&amp;nbsp;&lt;/span&gt;&lt;span style=&quot;color: rgb(193, 145, 255); font-family: &amp;quot;JetBrains Mono&amp;quot;, monospace; font-size: 10.5pt; background-color: rgb(38, 38, 38);&quot;&gt;FString&lt;/span&gt;&lt;/p&gt;&lt;p style=&quot;margin:0px;margin-left:4px;&quot;&gt;+&amp;nbsp;&lt;span style=&quot;color: rgb(102, 195, 204); font-family: &amp;quot;JetBrains Mono&amp;quot;, monospace; font-size: 10.5pt; background-color: rgb(38, 38, 38);&quot;&gt;Order&lt;/span&gt;&lt;span style=&quot;background-color: transparent; color: light-dark(rgb(0, 0, 0), rgb(255, 255, 255));&quot;&gt;:&amp;nbsp;&lt;/span&gt;&lt;span style=&quot;color: rgb(193, 145, 255); font-family: &amp;quot;JetBrains Mono&amp;quot;, monospace; font-size: 10.5pt; background-color: rgb(38, 38, 38);&quot;&gt;int32&amp;nbsp; 为pak的order，有的项目中不太需要使用&lt;/span&gt;&lt;/p&gt;&lt;hr size=&quot;1&quot; style=&quot;border-style:solid;&quot;&gt;&lt;p style=&quot;margin:0px;margin-left:4px;&quot;&gt;+ method1(Type): Type&lt;br&gt;+ method2(Type, Type): Type&lt;/p&gt;" style="verticalAlign=top;align=left;overflow=fill;html=1;whiteSpace=wrap;" vertex="1" parent="1">
          <mxGeometry x="1105" y="780" width="370" height="170" as="geometry" />
        </mxCell>
        <mxCell id="m2jniDgEbhSspdv5LjtX-1" value="&lt;p style=&quot;margin:0px;margin-top:4px;text-align:center;&quot;&gt;&lt;span style=&quot;color: rgb(225, 191, 255); font-family: &amp;quot;JetBrains Mono&amp;quot;, monospace; font-size: 14px; text-align: left; background-color: rgb(38, 38, 38);&quot;&gt;FPakInfo&lt;/span&gt;&lt;/p&gt;&lt;hr size=&quot;1&quot; style=&quot;border-style:solid;&quot;&gt;&lt;p style=&quot;margin:0px;margin-left:4px;&quot;&gt;+&amp;nbsp;&lt;span style=&quot;color: rgb(225, 191, 255); font-family: &amp;quot;JetBrains Mono&amp;quot;, monospace; font-size: 10.5pt; background-color: rgb(38, 38, 38);&quot;&gt;EncryptionKeyGuid&lt;/span&gt;&lt;span style=&quot;background-color: transparent; color: light-dark(rgb(0, 0, 0), rgb(255, 255, 255));&quot;&gt;:&amp;nbsp;&lt;/span&gt;&lt;span style=&quot;font-family: &amp;quot;JetBrains Mono&amp;quot;, monospace; font-size: 10.5pt; background-color: rgb(38, 38, 38); color: rgb(208, 208, 208);&quot;&gt;FGuid&amp;nbsp;&amp;nbsp;&lt;/span&gt;&lt;span style=&quot;background-color: rgb(255, 255, 255); font-family: Poppins-Medium; color: light-dark(rgb(0, 0, 0), rgb(255, 255, 255));&quot;&gt;&lt;font style=&quot;font-size: 13px;&quot;&gt;加密密钥指南。如果要使用嵌入键，则为空，与序列化有关&lt;/font&gt;&lt;/span&gt;&lt;/p&gt;&lt;p style=&quot;margin:0px;margin-left:4px;&quot;&gt;+ field2: Type&lt;/p&gt;&lt;hr size=&quot;1&quot; style=&quot;border-style:solid;&quot;&gt;&lt;p style=&quot;margin:0px;margin-left:4px;&quot;&gt;+ method1(Type): Type&lt;br&gt;+ method2(Type, Type): Type&lt;/p&gt;" style="verticalAlign=top;align=left;overflow=fill;html=1;whiteSpace=wrap;" vertex="1" parent="1">
          <mxGeometry x="1105" y="560" width="395" height="140" as="geometry" />
        </mxCell>
        <mxCell id="m2jniDgEbhSspdv5LjtX-2" value="&lt;p style=&quot;margin:0px;margin-top:4px;text-align:center;&quot;&gt;&lt;span style=&quot;color: rgb(208, 208, 208); font-family: &amp;quot;JetBrains Mono&amp;quot;, monospace; font-size: 14px; text-align: left; background-color: rgb(38, 38, 38);&quot;&gt;FGuid&lt;/span&gt;&lt;/p&gt;&lt;p style=&quot;margin:0px;margin-top:4px;text-align:center;&quot;&gt;&lt;span style=&quot;color: rgb(208, 208, 208); font-family: &amp;quot;JetBrains Mono&amp;quot;, monospace; font-size: 14px; text-align: left; background-color: rgb(38, 38, 38);&quot;&gt;加密密钥，与序列化相关&amp;nbsp;&amp;nbsp;&lt;/span&gt;&lt;/p&gt;&lt;hr size=&quot;1&quot; style=&quot;border-style:solid;&quot;&gt;&lt;p style=&quot;margin:0px;margin-left:4px;&quot;&gt;+ field1: Type&lt;br&gt;+ field2: Type&lt;/p&gt;&lt;hr size=&quot;1&quot; style=&quot;border-style:solid;&quot;&gt;&lt;p style=&quot;margin:0px;margin-left:4px;&quot;&gt;+ method1(Type): Type&lt;br&gt;+ method2(Type, Type): Type&lt;/p&gt;" style="verticalAlign=top;align=left;overflow=fill;html=1;whiteSpace=wrap;" vertex="1" parent="1">
          <mxGeometry x="1105" y="990" width="335" height="140" as="geometry" />
        </mxCell>
        <mxCell id="m2jniDgEbhSspdv5LjtX-3" value="&lt;div style=&quot;background-color: rgb(38, 38, 38); color: rgb(208, 208, 208);&quot;&gt;&lt;pre style=&quot;text-align: center; font-family: &amp;quot;JetBrains Mono&amp;quot;, monospace; font-size: 10.5pt;&quot;&gt;FAES::FAESKey&lt;/pre&gt;&lt;pre style=&quot;text-align: center; font-family: &amp;quot;JetBrains Mono&amp;quot;, monospace; font-size: 10.5pt;&quot;&gt;&lt;span style=&quot;color: rgb(0, 0, 0); font-family: Poppins-Medium; font-size: 16px; text-align: start; white-space: normal; background-color: rgb(255, 255, 255);&quot;&gt;表示256位AES密钥&lt;/span&gt;&lt;/pre&gt;&lt;/div&gt;&lt;hr size=&quot;1&quot; style=&quot;border-style:solid;&quot;&gt;&lt;p style=&quot;margin:0px;margin-left:4px;&quot;&gt;+ field1: Type&lt;br&gt;+ field2: Type&lt;/p&gt;&lt;hr size=&quot;1&quot; style=&quot;border-style:solid;&quot;&gt;&lt;p style=&quot;margin:0px;margin-left:4px;&quot;&gt;+ method1(Type): Type&lt;br&gt;+ method2(Type, Type): Type&lt;/p&gt;" style="verticalAlign=top;align=left;overflow=fill;html=1;whiteSpace=wrap;" vertex="1" parent="1">
          <mxGeometry x="1105" y="1160" width="385" height="170" as="geometry" />
        </mxCell>
      </root>
    </mxGraphModel>
  </diagram>
  <diagram id="jfqqeZHNTqThtDHwi7uc" name="mount的操作">
    <mxGraphModel dx="1097" dy="558" grid="1" gridSize="10" guides="1" tooltips="1" connect="1" arrows="1" fold="1" page="1" pageScale="1" pageWidth="827" pageHeight="1169" math="0" shadow="0">
      <root>
        <mxCell id="0" />
        <mxCell id="1" parent="0" />
        <mxCell id="dUGrjxhnX0BmQxLr7an7-1" value="&lt;div style=&quot;background-color:#262626;color:#d0d0d0&quot;&gt;&lt;pre style=&quot;font-family:&#39;JetBrains Mono&#39;,monospace;font-size:10.5pt;&quot;&gt;&lt;span style=&quot;color:#c191ff;&quot;&gt;UPakMountManager&lt;/span&gt;&lt;/pre&gt;&lt;/div&gt;" style="shape=umlLifeline;perimeter=lifelinePerimeter;whiteSpace=wrap;html=1;container=1;dropTarget=0;collapsible=0;recursiveResize=0;outlineConnect=0;portConstraint=eastwest;newEdgeStyle={&quot;curved&quot;:0,&quot;rounded&quot;:0};" vertex="1" parent="1">
          <mxGeometry x="110" y="40" width="120" height="1030" as="geometry" />
        </mxCell>
        <mxCell id="dUGrjxhnX0BmQxLr7an7-2" value="&lt;div style=&quot;background-color:#262626;color:#d0d0d0&quot;&gt;&lt;pre style=&quot;font-family:&#39;JetBrains Mono&#39;,monospace;font-size:10.5pt;&quot;&gt;&lt;span style=&quot;color:#39cc9b;&quot;&gt;Mount&lt;/span&gt;&lt;/pre&gt;&lt;/div&gt;" style="html=1;points=[[0,0,0,0,5],[0,1,0,0,-5],[1,0,0,0,5],[1,1,0,0,-5]];perimeter=orthogonalPerimeter;outlineConnect=0;targetShapes=umlLifeline;portConstraint=eastwest;newEdgeStyle={&quot;curved&quot;:0,&quot;rounded&quot;:0};" vertex="1" parent="dUGrjxhnX0BmQxLr7an7-1">
          <mxGeometry x="55" y="100" width="10" height="80" as="geometry" />
        </mxCell>
        <mxCell id="dUGrjxhnX0BmQxLr7an7-3" value="pakpath、pakorder" style="html=1;verticalAlign=bottom;startArrow=oval;endArrow=block;startSize=8;curved=0;rounded=0;entryX=0;entryY=0;entryDx=0;entryDy=5;" edge="1" target="dUGrjxhnX0BmQxLr7an7-2" parent="dUGrjxhnX0BmQxLr7an7-1">
          <mxGeometry relative="1" as="geometry">
            <mxPoint x="-90" y="105" as="sourcePoint" />
          </mxGeometry>
        </mxCell>
        <mxCell id="TVfw_28wMfbiFmcSkRsu-1" value="&lt;div style=&quot;background-color:#262626;color:#d0d0d0&quot;&gt;&lt;pre style=&quot;font-family:&#39;JetBrains Mono&#39;,monospace;font-size:10.5pt;&quot;&gt;FPakPlatformFile&lt;/pre&gt;&lt;/div&gt;" style="shape=umlLifeline;perimeter=lifelinePerimeter;whiteSpace=wrap;html=1;container=1;dropTarget=0;collapsible=0;recursiveResize=0;outlineConnect=0;portConstraint=eastwest;newEdgeStyle={&quot;curved&quot;:0,&quot;rounded&quot;:0};" vertex="1" parent="1">
          <mxGeometry x="350" y="40" width="150" height="1020" as="geometry" />
        </mxCell>
        <mxCell id="EauwsQtLT6DPRkkVXzpP-1" value="&lt;div style=&quot;background-color:#262626;color:#d0d0d0&quot;&gt;&lt;pre style=&quot;font-family:&#39;JetBrains Mono&#39;,monospace;font-size:10.5pt;&quot;&gt;Mount&lt;/pre&gt;&lt;/div&gt;" style="html=1;points=[[0,0,0,0,5],[0,1,0,0,-5],[1,0,0,0,5],[1,1,0,0,-5]];perimeter=orthogonalPerimeter;outlineConnect=0;targetShapes=umlLifeline;portConstraint=eastwest;newEdgeStyle={&quot;curved&quot;:0,&quot;rounded&quot;:0};" vertex="1" parent="TVfw_28wMfbiFmcSkRsu-1">
          <mxGeometry x="70" y="110" width="10" height="880" as="geometry" />
        </mxCell>
        <mxCell id="EauwsQtLT6DPRkkVXzpP-2" value="dispatch" style="html=1;verticalAlign=bottom;endArrow=block;curved=0;rounded=0;entryX=0;entryY=0;entryDx=0;entryDy=5;" edge="1" target="EauwsQtLT6DPRkkVXzpP-1" parent="1" source="dUGrjxhnX0BmQxLr7an7-2">
          <mxGeometry relative="1" as="geometry">
            <mxPoint x="350" y="165" as="sourcePoint" />
          </mxGeometry>
        </mxCell>
        <mxCell id="YwDVoJSgs7xIwq_od9NU-1" value="单例" style="text;html=1;align=center;verticalAlign=middle;resizable=0;points=[];autosize=1;strokeColor=none;fillColor=none;" vertex="1" parent="1">
          <mxGeometry x="145" y="10" width="50" height="30" as="geometry" />
        </mxCell>
        <mxCell id="YwDVoJSgs7xIwq_od9NU-2" value="单例" style="text;html=1;align=center;verticalAlign=middle;resizable=0;points=[];autosize=1;strokeColor=none;fillColor=none;" vertex="1" parent="1">
          <mxGeometry x="400" y="10" width="50" height="30" as="geometry" />
        </mxCell>
        <mxCell id="DzFxNJEAzILBg7Lo-2D_-1" value="&lt;div style=&quot;background-color:#262626;color:#d0d0d0&quot;&gt;&lt;pre style=&quot;font-family:&#39;JetBrains Mono&#39;,monospace;font-size:10.5pt;&quot;&gt;&lt;span style=&quot;color:#39cc9b;&quot;&gt;FPakFile&lt;/span&gt;&lt;/pre&gt;&lt;/div&gt;" style="shape=umlLifeline;perimeter=lifelinePerimeter;whiteSpace=wrap;html=1;container=1;dropTarget=0;collapsible=0;recursiveResize=0;outlineConnect=0;portConstraint=eastwest;newEdgeStyle={&quot;curved&quot;:0,&quot;rounded&quot;:0};" vertex="1" parent="1">
          <mxGeometry x="580" y="40" width="100" height="1010" as="geometry" />
        </mxCell>
        <mxCell id="DzFxNJEAzILBg7Lo-2D_-2" value="&lt;pre style=&quot;color: rgb(208, 208, 208); font-family: &amp;quot;JetBrains Mono&amp;quot;, monospace; font-size: 10.5pt;&quot;&gt;&lt;span style=&quot;color: rgb(57, 204, 155);&quot;&gt;FPakFile&lt;/span&gt;&lt;/pre&gt;" style="html=1;points=[[0,0,0,0,5],[0,1,0,0,-5],[1,0,0,0,5],[1,1,0,0,-5]];perimeter=orthogonalPerimeter;outlineConnect=0;targetShapes=umlLifeline;portConstraint=eastwest;newEdgeStyle={&quot;curved&quot;:0,&quot;rounded&quot;:0};" vertex="1" parent="DzFxNJEAzILBg7Lo-2D_-1">
          <mxGeometry x="45" y="160" width="10" height="80" as="geometry" />
        </mxCell>
        <mxCell id="DzFxNJEAzILBg7Lo-2D_-3" value="dispatch" style="html=1;verticalAlign=bottom;endArrow=block;curved=0;rounded=0;entryX=0;entryY=0;entryDx=0;entryDy=5;" edge="1" target="DzFxNJEAzILBg7Lo-2D_-2" parent="1">
          <mxGeometry relative="1" as="geometry">
            <mxPoint x="430" y="205" as="sourcePoint" />
          </mxGeometry>
        </mxCell>
        <mxCell id="DzFxNJEAzILBg7Lo-2D_-4" value="sharedptr对象pak&lt;div&gt;有专有了类型FPakFileThreadSafePtr&lt;/div&gt;" style="html=1;verticalAlign=bottom;endArrow=open;dashed=1;endSize=8;curved=0;rounded=0;exitX=0;exitY=1;exitDx=0;exitDy=-5;" edge="1" source="DzFxNJEAzILBg7Lo-2D_-2" parent="1">
          <mxGeometry x="0.0022" relative="1" as="geometry">
            <mxPoint x="430" y="275" as="targetPoint" />
            <mxPoint as="offset" />
          </mxGeometry>
        </mxCell>
        <mxCell id="DzFxNJEAzILBg7Lo-2D_-5" value="&lt;div style=&quot;background-color:#262626;color:#d0d0d0&quot;&gt;&lt;pre style=&quot;font-family:&#39;JetBrains Mono&#39;,monospace;font-size:10.5pt;&quot;&gt;FPakListEntry&lt;/pre&gt;&lt;/div&gt;" style="shape=umlLifeline;perimeter=lifelinePerimeter;whiteSpace=wrap;html=1;container=1;dropTarget=0;collapsible=0;recursiveResize=0;outlineConnect=0;portConstraint=eastwest;newEdgeStyle={&quot;curved&quot;:0,&quot;rounded&quot;:0};" vertex="1" parent="1">
          <mxGeometry x="770" y="40" width="100" height="980" as="geometry" />
        </mxCell>
        <mxCell id="DzFxNJEAzILBg7Lo-2D_-6" value="&lt;div style=&quot;background-color:#262626;color:#d0d0d0&quot;&gt;&lt;pre style=&quot;font-family:&#39;JetBrains Mono&#39;,monospace;font-size:10.5pt;&quot;&gt;FPakListEntry&lt;/pre&gt;&lt;/div&gt;" style="html=1;points=[[0,0,0,0,5],[0,1,0,0,-5],[1,0,0,0,5],[1,1,0,0,-5]];perimeter=orthogonalPerimeter;outlineConnect=0;targetShapes=umlLifeline;portConstraint=eastwest;newEdgeStyle={&quot;curved&quot;:0,&quot;rounded&quot;:0};" vertex="1" parent="DzFxNJEAzILBg7Lo-2D_-5">
          <mxGeometry x="45" y="290" width="10" height="80" as="geometry" />
        </mxCell>
        <mxCell id="DzFxNJEAzILBg7Lo-2D_-7" value="上面创建的sharedptr对象pak，pakorder" style="html=1;verticalAlign=bottom;endArrow=block;curved=0;rounded=0;entryX=0;entryY=0;entryDx=0;entryDy=5;" edge="1" target="DzFxNJEAzILBg7Lo-2D_-6" parent="1">
          <mxGeometry relative="1" as="geometry">
            <mxPoint x="430" y="335" as="sourcePoint" />
          </mxGeometry>
        </mxCell>
        <mxCell id="DzFxNJEAzILBg7Lo-2D_-8" value="不需要使用指针，直接返回栈上变量" style="html=1;verticalAlign=bottom;endArrow=open;dashed=1;endSize=8;curved=0;rounded=0;exitX=0;exitY=1;exitDx=0;exitDy=-5;" edge="1" source="DzFxNJEAzILBg7Lo-2D_-6" parent="1">
          <mxGeometry relative="1" as="geometry">
            <mxPoint x="430" y="405" as="targetPoint" />
          </mxGeometry>
        </mxCell>
        <mxCell id="JU-Kzd-jczSb-onI6-9b-2" value="&lt;div style=&quot;background-color:#262626;color:#d0d0d0&quot;&gt;&lt;pre style=&quot;font-family:&#39;JetBrains Mono&#39;,monospace;font-size:10.5pt;&quot;&gt;&lt;span style=&quot;color:#66c3cc;&quot;&gt;PakFiles&lt;/span&gt;&lt;span style=&quot;color:#bdbdbd;&quot;&gt;.&lt;/span&gt;&lt;span style=&quot;color:#39cc9b;&quot;&gt;Add&lt;/span&gt;&lt;span style=&quot;color:#bdbdbd;&quot;&gt;(Entry);&lt;br&gt;&lt;/span&gt;&lt;span style=&quot;color:#66c3cc;&quot;&gt;PakFiles&lt;/span&gt;&lt;span style=&quot;color:#bdbdbd;&quot;&gt;.&lt;/span&gt;&lt;span style=&quot;color:#39cc9b;&quot;&gt;StableSort&lt;/span&gt;&lt;span style=&quot;color:#bdbdbd;&quot;&gt;();&lt;/span&gt;&lt;/pre&gt;&lt;/div&gt;" style="html=1;points=[[0,0,0,0,5],[0,1,0,0,-5],[1,0,0,0,5],[1,1,0,0,-5]];perimeter=orthogonalPerimeter;outlineConnect=0;targetShapes=umlLifeline;portConstraint=eastwest;newEdgeStyle={&quot;curved&quot;:0,&quot;rounded&quot;:0};" vertex="1" parent="1">
          <mxGeometry x="510" y="420" width="10" height="80" as="geometry" />
        </mxCell>
        <mxCell id="JU-Kzd-jczSb-onI6-9b-3" value="dispatch" style="html=1;verticalAlign=bottom;endArrow=block;curved=0;rounded=0;entryX=0;entryY=0;entryDx=0;entryDy=5;" edge="1" target="JU-Kzd-jczSb-onI6-9b-2" parent="1">
          <mxGeometry relative="1" as="geometry">
            <mxPoint x="430" y="425" as="sourcePoint" />
          </mxGeometry>
        </mxCell>
        <mxCell id="37FIQruh0kSxUwDy6xPs-1" value="&lt;div style=&quot;background-color:#262626;color:#d0d0d0&quot;&gt;&lt;pre style=&quot;font-family:&#39;JetBrains Mono&#39;,monospace;font-size:10.5pt;&quot;&gt;FIoStoreEnvironment&lt;/pre&gt;&lt;/div&gt;" style="shape=umlLifeline;perimeter=lifelinePerimeter;whiteSpace=wrap;html=1;container=1;dropTarget=0;collapsible=0;recursiveResize=0;outlineConnect=0;portConstraint=eastwest;newEdgeStyle={&quot;curved&quot;:0,&quot;rounded&quot;:0};" vertex="1" parent="1">
          <mxGeometry x="980" y="40" width="150" height="1010" as="geometry" />
        </mxCell>
        <mxCell id="37FIQruh0kSxUwDy6xPs-5" value="&lt;div style=&quot;background-color:#262626;color:#d0d0d0&quot;&gt;&lt;pre style=&quot;font-family:&#39;JetBrains Mono&#39;,monospace;font-size:10.5pt;&quot;&gt;InitializeFileEnvironment&lt;/pre&gt;&lt;/div&gt;" style="html=1;points=[[0,0,0,0,5],[0,1,0,0,-5],[1,0,0,0,5],[1,1,0,0,-5]];perimeter=orthogonalPerimeter;outlineConnect=0;targetShapes=umlLifeline;portConstraint=eastwest;newEdgeStyle={&quot;curved&quot;:0,&quot;rounded&quot;:0};" vertex="1" parent="37FIQruh0kSxUwDy6xPs-1">
          <mxGeometry x="70" y="505" width="10" height="80" as="geometry" />
        </mxCell>
        <mxCell id="37FIQruh0kSxUwDy6xPs-2" value="" style="endArrow=none;dashed=1;html=1;dashPattern=1 3;strokeWidth=2;rounded=0;" edge="1" parent="1">
          <mxGeometry width="50" height="50" relative="1" as="geometry">
            <mxPoint x="290" y="530" as="sourcePoint" />
            <mxPoint x="930" y="530" as="targetPoint" />
          </mxGeometry>
        </mxCell>
        <mxCell id="37FIQruh0kSxUwDy6xPs-3" value="到此处为止&lt;div&gt;&lt;br&gt;&lt;/div&gt;" style="text;html=1;align=center;verticalAlign=middle;resizable=0;points=[];autosize=1;strokeColor=none;fillColor=none;" vertex="1" parent="1">
          <mxGeometry x="250" y="483" width="80" height="40" as="geometry" />
        </mxCell>
        <mxCell id="37FIQruh0kSxUwDy6xPs-4" value="其中Entry的readerorder&lt;div&gt;就是传入的pakorder&lt;/div&gt;" style="text;html=1;align=center;verticalAlign=middle;resizable=0;points=[];autosize=1;strokeColor=none;fillColor=none;" vertex="1" parent="1">
          <mxGeometry x="505" y="473" width="150" height="40" as="geometry" />
        </mxCell>
        <mxCell id="37FIQruh0kSxUwDy6xPs-6" value="pakpath， pakorder" style="html=1;verticalAlign=bottom;endArrow=block;curved=0;rounded=0;entryX=0;entryY=0;entryDx=0;entryDy=5;" edge="1" target="37FIQruh0kSxUwDy6xPs-5" parent="1" source="EauwsQtLT6DPRkkVXzpP-1">
          <mxGeometry relative="1" as="geometry">
            <mxPoint x="980" y="550" as="sourcePoint" />
          </mxGeometry>
        </mxCell>
        <mxCell id="37FIQruh0kSxUwDy6xPs-8" value="给path和order赋值" style="text;html=1;align=center;verticalAlign=middle;resizable=0;points=[];autosize=1;strokeColor=none;fillColor=none;" vertex="1" parent="1">
          <mxGeometry x="1040" y="548" width="120" height="30" as="geometry" />
        </mxCell>
        <mxCell id="37FIQruh0kSxUwDy6xPs-9" style="edgeStyle=orthogonalEdgeStyle;rounded=0;orthogonalLoop=1;jettySize=auto;html=1;curved=0;exitX=0;exitY=1;exitDx=0;exitDy=-5;exitPerimeter=0;" edge="1" parent="1" source="37FIQruh0kSxUwDy6xPs-5" target="EauwsQtLT6DPRkkVXzpP-1">
          <mxGeometry relative="1" as="geometry">
            <Array as="points">
              <mxPoint x="580" y="620" />
              <mxPoint x="580" y="620" />
            </Array>
          </mxGeometry>
        </mxCell>
        <mxCell id="37FIQruh0kSxUwDy6xPs-10" value="传回类对象InStoreEnvironment" style="text;html=1;align=center;verticalAlign=middle;resizable=0;points=[];autosize=1;strokeColor=none;fillColor=none;" vertex="1" parent="1">
          <mxGeometry x="635" y="588" width="190" height="30" as="geometry" />
        </mxCell>
        <mxCell id="ZS0QMInGZjU9R_nPp7Ix-1" value="&lt;div style=&quot;background-color:#262626;color:#d0d0d0&quot;&gt;&lt;pre style=&quot;font-family:&#39;JetBrains Mono&#39;,monospace;font-size:10.5pt;&quot;&gt;&lt;span style=&quot;color:#c191ff;&quot;&gt;FIoDispatcher&lt;/span&gt;&lt;/pre&gt;&lt;/div&gt;" style="shape=umlLifeline;perimeter=lifelinePerimeter;whiteSpace=wrap;html=1;container=1;dropTarget=0;collapsible=0;recursiveResize=0;outlineConnect=0;portConstraint=eastwest;newEdgeStyle={&quot;curved&quot;:0,&quot;rounded&quot;:0};" vertex="1" parent="1">
          <mxGeometry x="1230" y="40" width="100" height="1020" as="geometry" />
        </mxCell>
        <mxCell id="ZS0QMInGZjU9R_nPp7Ix-2" value="&lt;div style=&quot;background-color:#262626;color:#d0d0d0&quot;&gt;&lt;pre style=&quot;font-family:&#39;JetBrains Mono&#39;,monospace;font-size:10.5pt;&quot;&gt;Mount&lt;/pre&gt;&lt;/div&gt;" style="html=1;points=[[0,0,0,0,5],[0,1,0,0,-5],[1,0,0,0,5],[1,1,0,0,-5]];perimeter=orthogonalPerimeter;outlineConnect=0;targetShapes=umlLifeline;portConstraint=eastwest;newEdgeStyle={&quot;curved&quot;:0,&quot;rounded&quot;:0};" vertex="1" parent="ZS0QMInGZjU9R_nPp7Ix-1">
          <mxGeometry x="45" y="650" width="10" height="220" as="geometry" />
        </mxCell>
        <mxCell id="ZS0QMInGZjU9R_nPp7Ix-3" value="pak相关的类对象，IoStoreEnvironment、EncryptionKeyGuid、EncrytionKey" style="html=1;verticalAlign=bottom;endArrow=block;curved=0;rounded=0;entryX=0;entryY=0;entryDx=0;entryDy=5;" edge="1" target="ZS0QMInGZjU9R_nPp7Ix-2" parent="1">
          <mxGeometry x="-0.0005" relative="1" as="geometry">
            <mxPoint x="430" y="695" as="sourcePoint" />
            <mxPoint as="offset" />
          </mxGeometry>
        </mxCell>
        <mxCell id="05-e_TFozHzbgWIsdV4o-1" value="&lt;div style=&quot;background-color:#262626;color:#d0d0d0&quot;&gt;&lt;pre style=&quot;font-family:&#39;JetBrains Mono&#39;,monospace;font-size:10.5pt;&quot;&gt;FIoStatus&lt;/pre&gt;&lt;/div&gt;" style="shape=umlLifeline;perimeter=lifelinePerimeter;whiteSpace=wrap;html=1;container=1;dropTarget=0;collapsible=0;recursiveResize=0;outlineConnect=0;portConstraint=eastwest;newEdgeStyle={&quot;curved&quot;:0,&quot;rounded&quot;:0};" vertex="1" parent="1">
          <mxGeometry x="1440" y="40" width="100" height="1010" as="geometry" />
        </mxCell>
        <mxCell id="05-e_TFozHzbgWIsdV4o-2" value="&lt;div style=&quot;background-color:#262626;color:#d0d0d0&quot;&gt;&lt;pre style=&quot;font-family:&#39;JetBrains Mono&#39;,monospace;font-size:10.5pt;&quot;&gt;&lt;span style=&quot;color:#39cc9b;&quot;&gt;Mount&lt;/span&gt;&lt;/pre&gt;&lt;/div&gt;" style="html=1;points=[[0,0,0,0,5],[0,1,0,0,-5],[1,0,0,0,5],[1,1,0,0,-5]];perimeter=orthogonalPerimeter;outlineConnect=0;targetShapes=umlLifeline;portConstraint=eastwest;newEdgeStyle={&quot;curved&quot;:0,&quot;rounded&quot;:0};" vertex="1" parent="05-e_TFozHzbgWIsdV4o-1">
          <mxGeometry x="45" y="660" width="10" height="180" as="geometry" />
        </mxCell>
        <mxCell id="05-e_TFozHzbgWIsdV4o-3" value="pak相关的类对象，&lt;div&gt;IoStoreEnvironment、&lt;/div&gt;&lt;div&gt;EncryptionKeyGuid、&lt;/div&gt;&lt;div&gt;EncrytionKey&lt;/div&gt;" style="html=1;verticalAlign=bottom;endArrow=block;curved=0;rounded=0;entryX=0;entryY=0;entryDx=0;entryDy=5;" edge="1" target="05-e_TFozHzbgWIsdV4o-2" parent="1" source="ZS0QMInGZjU9R_nPp7Ix-2">
          <mxGeometry relative="1" as="geometry">
            <mxPoint x="1410" y="705" as="sourcePoint" />
          </mxGeometry>
        </mxCell>
        <mxCell id="05-e_TFozHzbgWIsdV4o-5" value="&lt;div style=&quot;background-color:#262626;color:#d0d0d0&quot;&gt;&lt;pre style=&quot;font-family:&#39;JetBrains Mono&#39;,monospace;font-size:10.5pt;&quot;&gt;&lt;span style=&quot;color:#c191ff;&quot;&gt;FFileIoStore&lt;/span&gt;&lt;/pre&gt;&lt;/div&gt;" style="shape=umlLifeline;perimeter=lifelinePerimeter;whiteSpace=wrap;html=1;container=1;dropTarget=0;collapsible=0;recursiveResize=0;outlineConnect=0;portConstraint=eastwest;newEdgeStyle={&quot;curved&quot;:0,&quot;rounded&quot;:0};" vertex="1" parent="1">
          <mxGeometry x="1640" y="40" width="100" height="1040" as="geometry" />
        </mxCell>
        <mxCell id="05-e_TFozHzbgWIsdV4o-6" value="&lt;div style=&quot;background-color:#262626;color:#d0d0d0&quot;&gt;&lt;pre style=&quot;font-family:&#39;JetBrains Mono&#39;,monospace;font-size:10.5pt;&quot;&gt;&lt;span style=&quot;color:#39cc9b;&quot;&gt;Mount&lt;/span&gt;&lt;/pre&gt;&lt;/div&gt;" style="html=1;points=[[0,0,0,0,5],[0,1,0,0,-5],[1,0,0,0,5],[1,1,0,0,-5]];perimeter=orthogonalPerimeter;outlineConnect=0;targetShapes=umlLifeline;portConstraint=eastwest;newEdgeStyle={&quot;curved&quot;:0,&quot;rounded&quot;:0};" vertex="1" parent="05-e_TFozHzbgWIsdV4o-5">
          <mxGeometry x="45" y="680" width="10" height="160" as="geometry" />
        </mxCell>
        <mxCell id="05-e_TFozHzbgWIsdV4o-7" value="pak相关的类对象，&lt;div&gt;IoStoreEnvironment、&lt;/div&gt;&lt;div&gt;EncryptionKeyGuid、&lt;/div&gt;&lt;div&gt;EncrytionKey&lt;/div&gt;" style="html=1;verticalAlign=bottom;endArrow=block;curved=0;rounded=0;entryX=0;entryY=0;entryDx=0;entryDy=5;" edge="1" target="05-e_TFozHzbgWIsdV4o-6" parent="1" source="05-e_TFozHzbgWIsdV4o-2">
          <mxGeometry relative="1" as="geometry">
            <mxPoint x="1610" y="725" as="sourcePoint" />
          </mxGeometry>
        </mxCell>
        <mxCell id="05-e_TFozHzbgWIsdV4o-9" value="&lt;div style=&quot;background-color:#262626;color:#d0d0d0&quot;&gt;&lt;pre style=&quot;font-family:&#39;JetBrains Mono&#39;,monospace;font-size:10.5pt;&quot;&gt;FFileIoStoreReader&lt;/pre&gt;&lt;/div&gt;" style="shape=umlLifeline;perimeter=lifelinePerimeter;whiteSpace=wrap;html=1;container=1;dropTarget=0;collapsible=0;recursiveResize=0;outlineConnect=0;portConstraint=eastwest;newEdgeStyle={&quot;curved&quot;:0,&quot;rounded&quot;:0};" vertex="1" parent="1">
          <mxGeometry x="1850" y="40" width="140" height="1030" as="geometry" />
        </mxCell>
        <mxCell id="05-e_TFozHzbgWIsdV4o-10" value="&lt;div style=&quot;background-color:#262626;color:#d0d0d0&quot;&gt;&lt;pre style=&quot;font-family:&#39;JetBrains Mono&#39;,monospace;font-size:10.5pt;&quot;&gt;Initialize&lt;/pre&gt;&lt;/div&gt;" style="html=1;points=[[0,0,0,0,5],[0,1,0,0,-5],[1,0,0,0,5],[1,1,0,0,-5]];perimeter=orthogonalPerimeter;outlineConnect=0;targetShapes=umlLifeline;portConstraint=eastwest;newEdgeStyle={&quot;curved&quot;:0,&quot;rounded&quot;:0};" vertex="1" parent="05-e_TFozHzbgWIsdV4o-9">
          <mxGeometry x="65" y="690" width="10" height="80" as="geometry" />
        </mxCell>
        <mxCell id="05-e_TFozHzbgWIsdV4o-11" value="IoStoreEnvironment" style="html=1;verticalAlign=bottom;endArrow=block;curved=0;rounded=0;entryX=0;entryY=0;entryDx=0;entryDy=5;" edge="1" target="05-e_TFozHzbgWIsdV4o-10" parent="1" source="05-e_TFozHzbgWIsdV4o-6">
          <mxGeometry relative="1" as="geometry">
            <mxPoint x="1830" y="735" as="sourcePoint" />
          </mxGeometry>
        </mxCell>
      </root>
    </mxGraphModel>
  </diagram>
  <diagram id="ke8QqF78M7az4VyXPgjW" name="chunkgroup的mount调用">
    <mxGraphModel dx="1019" dy="518" grid="1" gridSize="10" guides="1" tooltips="1" connect="1" arrows="1" fold="1" page="1" pageScale="1" pageWidth="827" pageHeight="1169" math="0" shadow="0">
      <root>
        <mxCell id="0" />
        <mxCell id="1" parent="0" />
        <mxCell id="XZBVxyT88FbW8ml7EqwC-1" value="&lt;div style=&quot;background-color:#262626;color:#d0d0d0&quot;&gt;&lt;pre style=&quot;font-family:&#39;JetBrains Mono&#39;,monospace;font-size:10.5pt;&quot;&gt;&lt;span style=&quot;color:#c191ff;&quot;&gt;MoeChunkGroupManager&lt;/span&gt;&lt;/pre&gt;&lt;/div&gt;" style="shape=umlLifeline;perimeter=lifelinePerimeter;whiteSpace=wrap;html=1;container=1;dropTarget=0;collapsible=0;recursiveResize=0;outlineConnect=0;portConstraint=eastwest;newEdgeStyle={&quot;curved&quot;:0,&quot;rounded&quot;:0};" vertex="1" parent="1">
          <mxGeometry x="70" y="30" width="160" height="1060" as="geometry" />
        </mxCell>
        <mxCell id="XZBVxyT88FbW8ml7EqwC-2" value="&lt;div style=&quot;background-color:#262626;color:#d0d0d0&quot;&gt;&lt;pre style=&quot;font-family:&#39;JetBrains Mono&#39;,monospace;font-size:10.5pt;&quot;&gt;&lt;span style=&quot;color:#39cc9b;&quot;&gt;MountGroups&lt;/span&gt;&lt;/pre&gt;&lt;/div&gt;" style="html=1;points=[[0,0,0,0,5],[0,1,0,0,-5],[1,0,0,0,5],[1,1,0,0,-5]];perimeter=orthogonalPerimeter;outlineConnect=0;targetShapes=umlLifeline;portConstraint=eastwest;newEdgeStyle={&quot;curved&quot;:0,&quot;rounded&quot;:0};" vertex="1" parent="XZBVxyT88FbW8ml7EqwC-1">
          <mxGeometry x="75" y="70" width="10" height="570" as="geometry" />
        </mxCell>
        <mxCell id="XZBVxyT88FbW8ml7EqwC-3" value="&lt;div style=&quot;background-color:#262626;color:#d0d0d0&quot;&gt;&lt;pre style=&quot;font-family:&#39;JetBrains Mono&#39;,monospace;font-size:10.5pt;&quot;&gt;&lt;span style=&quot;color:#39cc9b;&quot;&gt;CheckGroupStateAndMount&lt;/span&gt;&lt;/pre&gt;&lt;/div&gt;" style="html=1;points=[[0,0,0,0,5],[0,1,0,0,-5],[1,0,0,0,5],[1,1,0,0,-5]];perimeter=orthogonalPerimeter;outlineConnect=0;targetShapes=umlLifeline;portConstraint=eastwest;newEdgeStyle={&quot;curved&quot;:0,&quot;rounded&quot;:0};" vertex="1" parent="XZBVxyT88FbW8ml7EqwC-1">
          <mxGeometry x="85" y="110" width="10" height="400" as="geometry" />
        </mxCell>
        <mxCell id="XZBVxyT88FbW8ml7EqwC-4" value="groupid" style="html=1;align=left;spacingLeft=2;endArrow=block;rounded=0;edgeStyle=orthogonalEdgeStyle;curved=0;rounded=0;" edge="1" target="XZBVxyT88FbW8ml7EqwC-3" parent="XZBVxyT88FbW8ml7EqwC-1">
          <mxGeometry relative="1" as="geometry">
            <mxPoint x="90" y="90" as="sourcePoint" />
            <Array as="points">
              <mxPoint x="120" y="120" />
            </Array>
          </mxGeometry>
        </mxCell>
        <mxCell id="XZBVxyT88FbW8ml7EqwC-5" value="&lt;div style=&quot;background-color:#262626;color:#d0d0d0&quot;&gt;&lt;pre style=&quot;font-family:&#39;JetBrains Mono&#39;,monospace;font-size:10.5pt;&quot;&gt;&lt;span style=&quot;color:#39cc9b;&quot;&gt;GetChunkGroupInfo&lt;/span&gt;&lt;/pre&gt;&lt;/div&gt;" style="html=1;points=[[0,0,0,0,5],[0,1,0,0,-5],[1,0,0,0,5],[1,1,0,0,-5]];perimeter=orthogonalPerimeter;outlineConnect=0;targetShapes=umlLifeline;portConstraint=eastwest;newEdgeStyle={&quot;curved&quot;:0,&quot;rounded&quot;:0};" vertex="1" parent="XZBVxyT88FbW8ml7EqwC-1">
          <mxGeometry x="95" y="160" width="10" height="130" as="geometry" />
        </mxCell>
        <mxCell id="XZBVxyT88FbW8ml7EqwC-6" value="groupid" style="html=1;align=left;spacingLeft=2;endArrow=block;rounded=0;edgeStyle=orthogonalEdgeStyle;curved=0;rounded=0;" edge="1" target="XZBVxyT88FbW8ml7EqwC-5" parent="XZBVxyT88FbW8ml7EqwC-1">
          <mxGeometry relative="1" as="geometry">
            <mxPoint x="100" y="140" as="sourcePoint" />
            <Array as="points">
              <mxPoint x="130" y="170" />
            </Array>
          </mxGeometry>
        </mxCell>
        <mxCell id="XZBVxyT88FbW8ml7EqwC-16" value="&lt;div style=&quot;background-color:#262626;color:#d0d0d0&quot;&gt;&lt;pre style=&quot;font-family:&#39;JetBrains Mono&#39;,monospace;font-size:10.5pt;&quot;&gt;&lt;span style=&quot;color:#39cc9b;&quot;&gt;MountGroup&lt;/span&gt;&lt;/pre&gt;&lt;/div&gt;" style="html=1;points=[[0,0,0,0,5],[0,1,0,0,-5],[1,0,0,0,5],[1,1,0,0,-5]];perimeter=orthogonalPerimeter;outlineConnect=0;targetShapes=umlLifeline;portConstraint=eastwest;newEdgeStyle={&quot;curved&quot;:0,&quot;rounded&quot;:0};" vertex="1" parent="XZBVxyT88FbW8ml7EqwC-1">
          <mxGeometry x="95" y="370" width="10" height="80" as="geometry" />
        </mxCell>
        <mxCell id="XZBVxyT88FbW8ml7EqwC-17" value="groupid" style="html=1;align=left;spacingLeft=2;endArrow=block;rounded=0;edgeStyle=orthogonalEdgeStyle;curved=0;rounded=0;" edge="1" target="XZBVxyT88FbW8ml7EqwC-16" parent="XZBVxyT88FbW8ml7EqwC-1">
          <mxGeometry relative="1" as="geometry">
            <mxPoint x="100" y="350" as="sourcePoint" />
            <Array as="points">
              <mxPoint x="130" y="380" />
            </Array>
          </mxGeometry>
        </mxCell>
        <mxCell id="XZBVxyT88FbW8ml7EqwC-7" value="&lt;pre style=&quot;color: rgb(208, 208, 208); font-family: &amp;quot;JetBrains Mono&amp;quot;, monospace; font-size: 10.5pt;&quot;&gt;&lt;span style=&quot;color: rgb(193, 145, 255);&quot;&gt;MoeChunkGroupDownloadSchedule&lt;/span&gt;&lt;/pre&gt;" style="shape=umlLifeline;perimeter=lifelinePerimeter;whiteSpace=wrap;html=1;container=1;dropTarget=0;collapsible=0;recursiveResize=0;outlineConnect=0;portConstraint=eastwest;newEdgeStyle={&quot;curved&quot;:0,&quot;rounded&quot;:0};" vertex="1" parent="1">
          <mxGeometry x="300" y="30" width="240" height="1040" as="geometry" />
        </mxCell>
        <mxCell id="XZBVxyT88FbW8ml7EqwC-8" value="&lt;div style=&quot;background-color: rgb(38, 38, 38); color: rgb(208, 208, 208);&quot;&gt;&lt;pre style=&quot;font-family:&#39;JetBrains Mono&#39;,monospace;font-size:10.5pt;&quot;&gt;&lt;div&gt;&lt;pre style=&quot;font-family:&#39;JetBrains Mono&#39;,monospace;font-size:10.5pt;&quot;&gt;&lt;span style=&quot;color:#39cc9b;&quot;&gt;GetOrCreateChunkGroupInfo&lt;/span&gt;&lt;/pre&gt;&lt;/div&gt;&lt;/pre&gt;&lt;/div&gt;" style="html=1;points=[[0,0,0,0,5],[0,1,0,0,-5],[1,0,0,0,5],[1,1,0,0,-5]];perimeter=orthogonalPerimeter;outlineConnect=0;targetShapes=umlLifeline;portConstraint=eastwest;newEdgeStyle={&quot;curved&quot;:0,&quot;rounded&quot;:0};" vertex="1" parent="XZBVxyT88FbW8ml7EqwC-7">
          <mxGeometry x="114" y="190" width="10" height="80" as="geometry" />
        </mxCell>
        <mxCell id="XZBVxyT88FbW8ml7EqwC-9" value="&lt;span style=&quot;text-align: left;&quot;&gt;groupid&lt;/span&gt;" style="html=1;verticalAlign=bottom;endArrow=block;curved=0;rounded=0;entryX=0;entryY=0;entryDx=0;entryDy=5;" edge="1" target="XZBVxyT88FbW8ml7EqwC-8" parent="1" source="XZBVxyT88FbW8ml7EqwC-5">
          <mxGeometry relative="1" as="geometry">
            <mxPoint x="360" y="225" as="sourcePoint" />
          </mxGeometry>
        </mxCell>
        <mxCell id="XZBVxyT88FbW8ml7EqwC-10" value="return" style="html=1;verticalAlign=bottom;endArrow=open;dashed=1;endSize=8;curved=0;rounded=0;exitX=0;exitY=1;exitDx=0;exitDy=-5;" edge="1" source="XZBVxyT88FbW8ml7EqwC-8" parent="1" target="XZBVxyT88FbW8ml7EqwC-5">
          <mxGeometry relative="1" as="geometry">
            <mxPoint x="360" y="295" as="targetPoint" />
          </mxGeometry>
        </mxCell>
        <mxCell id="XZBVxyT88FbW8ml7EqwC-11" value="&lt;pre style=&quot;color: rgb(208, 208, 208); font-family: &amp;quot;JetBrains Mono&amp;quot;, monospace; font-size: 10.5pt;&quot;&gt;&lt;span style=&quot;color: rgb(193, 145, 255);&quot;&gt;MoeChunkGroupManager&lt;/span&gt;&lt;/pre&gt;" style="shape=umlLifeline;perimeter=lifelinePerimeter;whiteSpace=wrap;html=1;container=1;dropTarget=0;collapsible=0;recursiveResize=0;outlineConnect=0;portConstraint=eastwest;newEdgeStyle={&quot;curved&quot;:0,&quot;rounded&quot;:0};" vertex="1" parent="1">
          <mxGeometry x="890" y="30" width="160" height="1040" as="geometry" />
        </mxCell>
        <mxCell id="XZBVxyT88FbW8ml7EqwC-12" value="&lt;div style=&quot;background-color:#262626;color:#d0d0d0&quot;&gt;&lt;pre style=&quot;font-family:&#39;JetBrains Mono&#39;,monospace;font-size:10.5pt;&quot;&gt;&lt;span style=&quot;color:#39cc9b;&quot;&gt;GetChunkGroupConfigItem&lt;/span&gt;&lt;/pre&gt;&lt;/div&gt;" style="html=1;points=[[0,0,0,0,5],[0,1,0,0,-5],[1,0,0,0,5],[1,1,0,0,-5]];perimeter=orthogonalPerimeter;outlineConnect=0;targetShapes=umlLifeline;portConstraint=eastwest;newEdgeStyle={&quot;curved&quot;:0,&quot;rounded&quot;:0};" vertex="1" parent="XZBVxyT88FbW8ml7EqwC-11">
          <mxGeometry x="75" y="190" width="10" height="70" as="geometry" />
        </mxCell>
        <mxCell id="XZBVxyT88FbW8ml7EqwC-13" value="&lt;span style=&quot;text-align: left;&quot;&gt;groupid&lt;/span&gt;" style="html=1;verticalAlign=bottom;endArrow=block;curved=0;rounded=0;entryX=0;entryY=0;entryDx=0;entryDy=5;exitX=1;exitY=0;exitDx=0;exitDy=5;exitPerimeter=0;" edge="1" target="XZBVxyT88FbW8ml7EqwC-12" parent="1" source="XZBVxyT88FbW8ml7EqwC-8">
          <mxGeometry relative="1" as="geometry">
            <mxPoint x="620" y="225" as="sourcePoint" />
          </mxGeometry>
        </mxCell>
        <mxCell id="XZBVxyT88FbW8ml7EqwC-14" value="return" style="html=1;verticalAlign=bottom;endArrow=open;dashed=1;endSize=8;curved=0;rounded=0;exitX=0;exitY=1;exitDx=0;exitDy=-5;" edge="1" source="XZBVxyT88FbW8ml7EqwC-12" parent="1" target="XZBVxyT88FbW8ml7EqwC-7">
          <mxGeometry relative="1" as="geometry">
            <mxPoint x="620" y="295" as="targetPoint" />
          </mxGeometry>
        </mxCell>
        <mxCell id="XZBVxyT88FbW8ml7EqwC-15" value="配置在本地文件中&lt;div&gt;包含一个包组有哪些pak&lt;/div&gt;" style="text;html=1;align=center;verticalAlign=middle;resizable=0;points=[];autosize=1;strokeColor=none;fillColor=none;" vertex="1" parent="1">
          <mxGeometry x="980" y="200" width="150" height="40" as="geometry" />
        </mxCell>
        <mxCell id="XZBVxyT88FbW8ml7EqwC-20" value="&lt;div style=&quot;background-color:#262626;color:#d0d0d0&quot;&gt;&lt;pre style=&quot;font-family:&#39;JetBrains Mono&#39;,monospace;font-size:10.5pt;&quot;&gt;&lt;span style=&quot;color:#c191ff;&quot;&gt;MoeChunkGroupMountSchedule&lt;/span&gt;&lt;/pre&gt;&lt;/div&gt;" style="shape=umlLifeline;perimeter=lifelinePerimeter;whiteSpace=wrap;html=1;container=1;dropTarget=0;collapsible=0;recursiveResize=0;outlineConnect=0;portConstraint=eastwest;newEdgeStyle={&quot;curved&quot;:0,&quot;rounded&quot;:0};" vertex="1" parent="1">
          <mxGeometry x="620" y="30" width="200" height="990" as="geometry" />
        </mxCell>
        <mxCell id="XZBVxyT88FbW8ml7EqwC-21" value="&lt;div style=&quot;background-color:#262626;color:#d0d0d0&quot;&gt;&lt;pre style=&quot;font-family:&#39;JetBrains Mono&#39;,monospace;font-size:10.5pt;&quot;&gt;&lt;span style=&quot;color:#39cc9b;&quot;&gt;MountGroup&lt;/span&gt;&lt;/pre&gt;&lt;/div&gt;" style="html=1;points=[[0,0,0,0,5],[0,1,0,0,-5],[1,0,0,0,5],[1,1,0,0,-5]];perimeter=orthogonalPerimeter;outlineConnect=0;targetShapes=umlLifeline;portConstraint=eastwest;newEdgeStyle={&quot;curved&quot;:0,&quot;rounded&quot;:0};" vertex="1" parent="XZBVxyT88FbW8ml7EqwC-20">
          <mxGeometry x="95" y="390" width="10" height="250" as="geometry" />
        </mxCell>
        <mxCell id="XZBVxyT88FbW8ml7EqwC-22" value="&lt;span style=&quot;text-align: left;&quot;&gt;groupid&lt;/span&gt;" style="html=1;verticalAlign=bottom;endArrow=block;curved=0;rounded=0;entryX=0;entryY=0;entryDx=0;entryDy=5;" edge="1" target="XZBVxyT88FbW8ml7EqwC-21" parent="1" source="XZBVxyT88FbW8ml7EqwC-16">
          <mxGeometry relative="1" as="geometry">
            <mxPoint x="640" y="405" as="sourcePoint" />
          </mxGeometry>
        </mxCell>
        <mxCell id="XZBVxyT88FbW8ml7EqwC-27" value="&lt;div style=&quot;background-color:#262626;color:#d0d0d0&quot;&gt;&lt;pre style=&quot;font-family:&#39;JetBrains Mono&#39;,monospace;font-size:10.5pt;&quot;&gt;&lt;span style=&quot;color:#c191ff;&quot;&gt;MoePakManager&lt;/span&gt;&lt;/pre&gt;&lt;/div&gt;" style="shape=umlLifeline;perimeter=lifelinePerimeter;whiteSpace=wrap;html=1;container=1;dropTarget=0;collapsible=0;recursiveResize=0;outlineConnect=0;portConstraint=eastwest;newEdgeStyle={&quot;curved&quot;:0,&quot;rounded&quot;:0};" vertex="1" parent="1">
          <mxGeometry x="1180" y="30" width="100" height="1050" as="geometry" />
        </mxCell>
        <mxCell id="XZBVxyT88FbW8ml7EqwC-28" value="&lt;div style=&quot;background-color:#262626;color:#d0d0d0&quot;&gt;&lt;pre style=&quot;font-family:&#39;JetBrains Mono&#39;,monospace;font-size:10.5pt;&quot;&gt;&lt;span style=&quot;color:#39cc9b;&quot;&gt;CreateOrGetPakLoader&lt;/span&gt;&lt;/pre&gt;&lt;/div&gt;" style="html=1;points=[[0,0,0,0,5],[0,1,0,0,-5],[1,0,0,0,5],[1,1,0,0,-5]];perimeter=orthogonalPerimeter;outlineConnect=0;targetShapes=umlLifeline;portConstraint=eastwest;newEdgeStyle={&quot;curved&quot;:0,&quot;rounded&quot;:0};" vertex="1" parent="XZBVxyT88FbW8ml7EqwC-27">
          <mxGeometry x="45" y="400" width="10" height="80" as="geometry" />
        </mxCell>
        <mxCell id="XZBVxyT88FbW8ml7EqwC-29" value="pakname" style="html=1;verticalAlign=bottom;endArrow=block;curved=0;rounded=0;entryX=0;entryY=0;entryDx=0;entryDy=5;" edge="1" target="XZBVxyT88FbW8ml7EqwC-28" parent="1" source="XZBVxyT88FbW8ml7EqwC-21">
          <mxGeometry relative="1" as="geometry">
            <mxPoint x="1150" y="435" as="sourcePoint" />
          </mxGeometry>
        </mxCell>
        <mxCell id="XZBVxyT88FbW8ml7EqwC-30" value="&lt;span style=&quot;font-size: 12px; background-color: rgb(236, 236, 236);&quot;&gt;pakloader&lt;/span&gt;" style="html=1;verticalAlign=bottom;endArrow=open;dashed=1;endSize=8;curved=0;rounded=0;exitX=0;exitY=1;exitDx=0;exitDy=-5;" edge="1" source="XZBVxyT88FbW8ml7EqwC-28" parent="1" target="XZBVxyT88FbW8ml7EqwC-21">
          <mxGeometry relative="1" as="geometry">
            <mxPoint x="1150" y="505" as="targetPoint" />
          </mxGeometry>
        </mxCell>
        <mxCell id="XZBVxyT88FbW8ml7EqwC-31" value="为每一个pak创建管理下载&lt;div&gt;到mount状态的&lt;/div&gt;&lt;div&gt;pakloader&lt;/div&gt;" style="text;html=1;align=center;verticalAlign=middle;resizable=0;points=[];autosize=1;strokeColor=none;fillColor=none;" vertex="1" parent="1">
          <mxGeometry x="1200" y="380" width="160" height="60" as="geometry" />
        </mxCell>
        <mxCell id="XZBVxyT88FbW8ml7EqwC-32" value="&lt;div style=&quot;background-color:#262626;color:#d0d0d0&quot;&gt;&lt;pre style=&quot;font-family:&#39;JetBrains Mono&#39;,monospace;font-size:10.5pt;&quot;&gt;&lt;span style=&quot;color:#bdbdbd;&quot;&gt;MoePakLoader&lt;/span&gt;&lt;/pre&gt;&lt;/div&gt;" style="shape=umlLifeline;perimeter=lifelinePerimeter;whiteSpace=wrap;html=1;container=1;dropTarget=0;collapsible=0;recursiveResize=0;outlineConnect=0;portConstraint=eastwest;newEdgeStyle={&quot;curved&quot;:0,&quot;rounded&quot;:0};" vertex="1" parent="1">
          <mxGeometry x="1390" y="30" width="100" height="1040" as="geometry" />
        </mxCell>
        <mxCell id="XZBVxyT88FbW8ml7EqwC-33" value="&lt;div style=&quot;background-color:#262626;color:#d0d0d0&quot;&gt;&lt;pre style=&quot;font-family:&#39;JetBrains Mono&#39;,monospace;font-size:10.5pt;&quot;&gt;&lt;span style=&quot;color:#39cc9b;&quot;&gt;TryMountPak&lt;/span&gt;&lt;/pre&gt;&lt;/div&gt;" style="html=1;points=[[0,0,0,0,5],[0,1,0,0,-5],[1,0,0,0,5],[1,1,0,0,-5]];perimeter=orthogonalPerimeter;outlineConnect=0;targetShapes=umlLifeline;portConstraint=eastwest;newEdgeStyle={&quot;curved&quot;:0,&quot;rounded&quot;:0};" vertex="1" parent="XZBVxyT88FbW8ml7EqwC-32">
          <mxGeometry x="45" y="530" width="10" height="290" as="geometry" />
        </mxCell>
        <mxCell id="XZBVxyT88FbW8ml7EqwC-36" value="&lt;div style=&quot;background-color:#262626;color:#d0d0d0&quot;&gt;&lt;pre style=&quot;font-family:&#39;JetBrains Mono&#39;,monospace;font-size:10.5pt;&quot;&gt;&lt;span style=&quot;color:#39cc9b;&quot;&gt;MountPakReal&lt;/span&gt;&lt;/pre&gt;&lt;/div&gt;" style="html=1;points=[[0,0,0,0,5],[0,1,0,0,-5],[1,0,0,0,5],[1,1,0,0,-5]];perimeter=orthogonalPerimeter;outlineConnect=0;targetShapes=umlLifeline;portConstraint=eastwest;newEdgeStyle={&quot;curved&quot;:0,&quot;rounded&quot;:0};" vertex="1" parent="XZBVxyT88FbW8ml7EqwC-32">
          <mxGeometry x="55" y="600" width="10" height="200" as="geometry" />
        </mxCell>
        <mxCell id="XZBVxyT88FbW8ml7EqwC-37" value="self call" style="html=1;align=left;spacingLeft=2;endArrow=block;rounded=0;edgeStyle=orthogonalEdgeStyle;curved=0;rounded=0;" edge="1" target="XZBVxyT88FbW8ml7EqwC-36" parent="XZBVxyT88FbW8ml7EqwC-32">
          <mxGeometry relative="1" as="geometry">
            <mxPoint x="60" y="580" as="sourcePoint" />
            <Array as="points">
              <mxPoint x="90" y="610" />
            </Array>
          </mxGeometry>
        </mxCell>
        <mxCell id="XZBVxyT88FbW8ml7EqwC-34" value="" style="html=1;verticalAlign=bottom;endArrow=block;curved=0;rounded=0;entryX=0;entryY=0;entryDx=0;entryDy=5;" edge="1" target="XZBVxyT88FbW8ml7EqwC-33" parent="1" source="XZBVxyT88FbW8ml7EqwC-21">
          <mxGeometry x="0.0011" relative="1" as="geometry">
            <mxPoint x="1360" y="565" as="sourcePoint" />
            <mxPoint as="offset" />
          </mxGeometry>
        </mxCell>
        <mxCell id="XZBVxyT88FbW8ml7EqwC-38" value="此处管理&lt;div&gt;mount的计数&lt;/div&gt;" style="text;html=1;align=center;verticalAlign=middle;resizable=0;points=[];autosize=1;strokeColor=none;fillColor=none;" vertex="1" parent="1">
          <mxGeometry x="1440" y="565" width="90" height="40" as="geometry" />
        </mxCell>
        <mxCell id="XZBVxyT88FbW8ml7EqwC-41" value="&lt;div style=&quot;background-color:#262626;color:#d0d0d0&quot;&gt;&lt;pre style=&quot;font-family:&#39;JetBrains Mono&#39;,monospace;font-size:10.5pt;&quot;&gt;&lt;span style=&quot;color:#bdbdbd;&quot;&gt;UE4&lt;/span&gt;.&lt;span style=&quot;color:#bdbdbd;&quot;&gt;UPakMountManager&lt;/span&gt;.&lt;span style=&quot;color:#39cc9b;&quot;&gt;Mount&lt;/span&gt;(&lt;span style=&quot;color:#bdbdbd;&quot;&gt;pakPath&lt;/span&gt;, &lt;span style=&quot;color:#bdbdbd;&quot;&gt;mountOrder&lt;/span&gt;)&lt;/pre&gt;&lt;/div&gt;" style="html=1;points=[[0,0,0,0,5],[0,1,0,0,-5],[1,0,0,0,5],[1,1,0,0,-5]];perimeter=orthogonalPerimeter;outlineConnect=0;targetShapes=umlLifeline;portConstraint=eastwest;newEdgeStyle={&quot;curved&quot;:0,&quot;rounded&quot;:0};" vertex="1" parent="1">
          <mxGeometry x="1700" y="660" width="10" height="80" as="geometry" />
        </mxCell>
        <mxCell id="XZBVxyT88FbW8ml7EqwC-42" value="pakpath， mountorder" style="html=1;verticalAlign=bottom;endArrow=block;curved=0;rounded=0;entryX=0;entryY=0;entryDx=0;entryDy=5;" edge="1" target="XZBVxyT88FbW8ml7EqwC-41" parent="1" source="XZBVxyT88FbW8ml7EqwC-36">
          <mxGeometry x="0.0029" relative="1" as="geometry">
            <mxPoint x="1530" y="665" as="sourcePoint" />
            <mxPoint as="offset" />
          </mxGeometry>
        </mxCell>
        <mxCell id="XZBVxyT88FbW8ml7EqwC-44" value="遍历chunk中的每一个pak" style="shape=umlFrame;whiteSpace=wrap;html=1;pointerEvents=0;" vertex="1" parent="1">
          <mxGeometry x="1030" y="365" width="1030" height="605" as="geometry" />
        </mxCell>
        <mxCell id="Nrb1w9i9thBV22RNXuB1-1" value="mounorder由配表决定&lt;div&gt;此处只对高清晰画质的一个pak进行了优先处理&lt;/div&gt;" style="text;html=1;align=center;verticalAlign=middle;resizable=0;points=[];autosize=1;strokeColor=none;fillColor=none;" vertex="1" parent="1">
          <mxGeometry x="1600" y="605" width="270" height="40" as="geometry" />
        </mxCell>
      </root>
    </mxGraphModel>
  </diagram>
  <diagram id="iB-Op9EmxfvC-SP-j8kv" name="创建object时的加载资源">
    <mxGraphModel dx="1042" dy="570" grid="1" gridSize="10" guides="1" tooltips="1" connect="1" arrows="1" fold="1" page="1" pageScale="1" pageWidth="827" pageHeight="1169" math="0" shadow="0">
      <root>
        <mxCell id="0" />
        <mxCell id="1" parent="0" />
      </root>
    </mxGraphModel>
  </diagram>
</mxfile>
